<?xml version="1.0" encoding="UTF-8" standalone="no"?>
<!DOCTYPE svg PUBLIC "-//W3C//DTD SVG 1.0//EN"
 "http://www.w3.org/TR/2001/REC-SVG-20010904/DTD/svg10.dtd" [
 <!ATTLIST svg xmlns:xlink CDATA #FIXED "http://www.w3.org/1999/xlink">
]>
<!-- Generated by Graphviz version 2.20.2 (Mon Feb 23 19:15:28 UTC 2009)
     For user: (kviljoen)  -->
<!-- Title: Tychus_assembly_DAG Pages: 1 -->
<svg width="1714pt" height="936pt"
 viewBox="0.00 0.00 1714.00 936.00" xmlns="http://www.w3.org/2000/svg" xmlns:xlink="http://www.w3.org/1999/xlink">
<g id="graph0" class="graph" transform="scale(1 1) rotate(0) translate(4 932)">
<title>Tychus_assembly_DAG</title>
<polygon style="fill:white;stroke:white;" points="-4,4 -4,-932 1710,-932 1710,4 -4,4"/>
<!-- p0 -->
<g id="node1" class="node"><title>p0</title>
<ellipse style="fill:black;stroke:black;" cx="616" cy="-925" rx="3.6" ry="3.6"/>
</g>
<!-- p1 -->
<g id="node2" class="node"><title>p1</title>
<ellipse style="fill:none;stroke:black;" cx="616" cy="-881" rx="3" ry="3"/>
</g>
<!-- p0&#45;&gt;p1 -->
<g id="edge2" class="edge"><title>p0&#45;&gt;p1</title>
<path style="fill:none;stroke:black;" d="M616,-921C616,-915 616,-904 616,-894"/>
<polygon style="fill:black;stroke:black;" points="619.5,-894 616,-884 612.5,-894 619.5,-894"/>
</g>
<!-- p2 -->
<g id="node4" class="node"><title>p2</title>
<ellipse style="fill:none;stroke:black;" cx="616" cy="-805" rx="43.8406" ry="18.3848"/>
<text text-anchor="middle" x="616" y="-801.4" style="font-family:Times New Roman;font-size:14.00;">RunQC</text>
</g>
<!-- p1&#45;&gt;p2 -->
<g id="edge4" class="edge"><title>p1&#45;&gt;p2</title>
<path style="fill:none;stroke:black;" d="M616,-878C616,-871 616,-851 616,-834"/>
<polygon style="fill:black;stroke:black;" points="619.5,-834 616,-824 612.5,-834 619.5,-834"/>
<text text-anchor="middle" x="689" y="-847.4" style="font-family:Times New Roman;font-size:14.00;">trimmomatic_read_pairs</text>
</g>
<!-- p4 -->
<g id="node6" class="node"><title>p4</title>
<ellipse style="fill:black;stroke:black;" cx="364" cy="-713" rx="1.8" ry="1.8"/>
</g>
<!-- p2&#45;&gt;p4 -->
<g id="edge6" class="edge"><title>p2&#45;&gt;p4</title>
<path style="fill:none;stroke:black;" d="M572,-804C511,-801 404,-793 377,-768 365,-757 363,-738 363,-725"/>
<polygon style="fill:black;stroke:black;" points="366.488,-725.299 364,-715 359.522,-724.602 366.488,-725.299"/>
<text text-anchor="middle" x="430" y="-755.4" style="font-family:Times New Roman;font-size:14.00;">abyss_read_pairs</text>
</g>
<!-- p3 -->
<g id="node8" class="node"><title>p3</title>
<ellipse style="fill:black;stroke:black;" cx="494" cy="-713" rx="1.8" ry="1.8"/>
</g>
<!-- p2&#45;&gt;p3 -->
<g id="edge8" class="edge"><title>p2&#45;&gt;p3</title>
<path style="fill:none;stroke:black;" d="M575,-798C544,-791 504,-781 495,-768 485,-756 488,-737 490,-725"/>
<polygon style="fill:black;stroke:black;" points="493.479,-725.584 493,-715 486.774,-723.573 493.479,-725.584"/>
<text text-anchor="middle" x="548" y="-755.4" style="font-family:Times New Roman;font-size:14.00;">velvet_read_pairs</text>
</g>
<!-- p8 -->
<g id="node10" class="node"><title>p8</title>
<ellipse style="fill:none;stroke:black;" cx="1254" cy="-621" rx="106.773" ry="18.3848"/>
<text text-anchor="middle" x="1254" y="-617.4" style="font-family:Times New Roman;font-size:14.00;">BuildSpadesAssembly</text>
</g>
<!-- p2&#45;&gt;p8 -->
<g id="edge10" class="edge"><title>p2&#45;&gt;p8</title>
<path style="fill:none;stroke:black;" d="M659,-800C710,-794 799,-783 874,-768 1031,-736 1097,-775 1224,-676 1232,-669 1239,-659 1244,-649"/>
<polygon style="fill:black;stroke:black;" points="1247.14,-650.56 1248,-640 1240.74,-647.717 1247.14,-650.56"/>
<text text-anchor="middle" x="1251" y="-709.4" style="font-family:Times New Roman;font-size:14.00;">spades_read_pairs</text>
</g>
<!-- p9 -->
<g id="node12" class="node"><title>p9</title>
<ellipse style="fill:none;stroke:black;" cx="575" cy="-621" rx="96.8736" ry="18.3848"/>
<text text-anchor="middle" x="575" y="-617.4" style="font-family:Times New Roman;font-size:14.00;">BuildIDBAAssembly</text>
</g>
<!-- p2&#45;&gt;p9 -->
<g id="edge12" class="edge"><title>p2&#45;&gt;p9</title>
<path style="fill:none;stroke:black;" d="M612,-786C605,-754 590,-688 581,-649"/>
<polygon style="fill:black;stroke:black;" points="584.393,-648.119 579,-639 577.529,-649.492 584.393,-648.119"/>
<text text-anchor="middle" x="647" y="-709.4" style="font-family:Times New Roman;font-size:14.00;">idba_read_pairs</text>
</g>
<!-- p5 -->
<g id="node14" class="node"><title>p5</title>
<ellipse style="fill:none;stroke:black;" cx="816" cy="-713" rx="84.8528" ry="18.3848"/>
<text text-anchor="middle" x="816" y="-709.4" style="font-family:Times New Roman;font-size:14.00;">IdentifyBestKmer</text>
</g>
<!-- p2&#45;&gt;p5 -->
<g id="edge14" class="edge"><title>p2&#45;&gt;p5</title>
<path style="fill:none;stroke:black;" d="M646,-791C679,-776 733,-751 771,-734"/>
<polygon style="fill:black;stroke:black;" points="772.283,-737.26 780,-730 769.44,-730.863 772.283,-737.26"/>
<text text-anchor="middle" x="798" y="-755.4" style="font-family:Times New Roman;font-size:14.00;">kmer_genie_read_pairs</text>
</g>
<!-- p10 -->
<g id="node22" class="node"><title>p10</title>
<ellipse style="fill:none;stroke:black;" cx="756" cy="-545" rx="3" ry="3"/>
</g>
<!-- p8&#45;&gt;p10 -->
<g id="edge32" class="edge"><title>p8&#45;&gt;p10</title>
<path style="fill:none;stroke:black;" d="M1215,-604C1184,-591 1139,-574 1099,-566 1034,-552 825,-547 769,-545"/>
<polygon style="fill:black;stroke:black;" points="769,-541.5 759,-545 769,-548.5 769,-541.5"/>
<text text-anchor="middle" x="1245" y="-571.4" style="font-family:Times New Roman;font-size:14.00;">spades_assembly_results</text>
</g>
<!-- p17 -->
<g id="node24" class="node"><title>p17</title>
<ellipse style="fill:none;stroke:black;" cx="1078" cy="-273" rx="3" ry="3"/>
</g>
<!-- p8&#45;&gt;p17 -->
<g id="edge34" class="edge"><title>p8&#45;&gt;p17</title>
<path style="fill:none;stroke:black;" d="M1344,-611C1416,-600 1506,-580 1506,-545 1506,-545 1506,-545 1506,-365 1506,-321 1164,-282 1091,-274"/>
<polygon style="fill:black;stroke:black;" points="1091.3,-270.512 1081,-273 1090.6,-277.478 1091.3,-270.512"/>
<text text-anchor="middle" x="1606" y="-467.4" style="font-family:Times New Roman;font-size:14.00;">spades_assembly_quast_contigs</text>
</g>
<!-- p9&#45;&gt;p10 -->
<g id="edge36" class="edge"><title>p9&#45;&gt;p10</title>
<path style="fill:none;stroke:black;" d="M581,-602C586,-590 595,-574 608,-566 629,-551 710,-547 743,-545"/>
<polygon style="fill:black;stroke:black;" points="743,-548.5 753,-545 743,-541.5 743,-548.5"/>
<text text-anchor="middle" x="677" y="-571.4" style="font-family:Times New Roman;font-size:14.00;">idba_assembly_results</text>
</g>
<!-- p9&#45;&gt;p17 -->
<g id="edge38" class="edge"><title>p9&#45;&gt;p17</title>
<path style="fill:none;stroke:black;" d="M569,-602C564,-587 559,-565 559,-545 559,-545 559,-545 559,-365 559,-312 983,-279 1065,-274"/>
<polygon style="fill:black;stroke:black;" points="1065.4,-277.478 1075,-273 1064.7,-270.512 1065.4,-277.478"/>
<text text-anchor="middle" x="650" y="-467.4" style="font-family:Times New Roman;font-size:14.00;">idba_assembly_quast_contigs</text>
</g>
<!-- p6 -->
<g id="node16" class="node"><title>p6</title>
<ellipse style="fill:none;stroke:black;" cx="1020" cy="-621" rx="99.9096" ry="18.3848"/>
<text text-anchor="middle" x="1020" y="-617.4" style="font-family:Times New Roman;font-size:14.00;">BuildAbyssAssembly</text>
</g>
<!-- p5&#45;&gt;p6 -->
<g id="edge16" class="edge"><title>p5&#45;&gt;p6</title>
<path style="fill:none;stroke:black;" d="M895,-706C963,-700 1051,-689 1063,-676 1071,-666 1065,-655 1056,-646"/>
<polygon style="fill:black;stroke:black;" points="1057.83,-642.951 1048,-639 1053.22,-648.219 1057.83,-642.951"/>
<text text-anchor="middle" x="1143" y="-663.4" style="font-family:Times New Roman;font-size:14.00;">best_abyss_kmer_results</text>
</g>
<!-- p5&#45;&gt;p6 -->
<g id="edge20" class="edge"><title>p5&#45;&gt;p6</title>
<path style="fill:none;stroke:black;" d="M884,-702C905,-696 928,-688 946,-676 954,-670 952,-664 960,-658 966,-653 971,-648 978,-644"/>
<polygon style="fill:black;stroke:black;" points="979.958,-646.916 987,-639 976.559,-640.797 979.958,-646.916"/>
<text text-anchor="middle" x="1007" y="-663.4" style="font-family:Times New Roman;font-size:14.00;">abyss_kg_pairs</text>
</g>
<!-- p7 -->
<g id="node18" class="node"><title>p7</title>
<ellipse style="fill:none;stroke:black;" cx="791" cy="-621" rx="101.116" ry="18.3848"/>
<text text-anchor="middle" x="791" y="-617.4" style="font-family:Times New Roman;font-size:14.00;">BuildVelvetAssembly</text>
</g>
<!-- p5&#45;&gt;p7 -->
<g id="edge22" class="edge"><title>p5&#45;&gt;p7</title>
<path style="fill:none;stroke:black;" d="M750,-701C723,-695 697,-686 689,-676 677,-659 691,-646 712,-638"/>
<polygon style="fill:black;stroke:black;" points="713.427,-641.226 722,-635 711.416,-634.521 713.427,-641.226"/>
<text text-anchor="middle" x="737" y="-663.4" style="font-family:Times New Roman;font-size:14.00;">velvet_kg_pairs</text>
</g>
<!-- p5&#45;&gt;p7 -->
<g id="edge18" class="edge"><title>p5&#45;&gt;p7</title>
<path style="fill:none;stroke:black;" d="M801,-694C797,-689 794,-682 792,-676 789,-668 788,-658 788,-650"/>
<polygon style="fill:black;stroke:black;" points="791.488,-650.299 789,-640 784.522,-649.602 791.488,-650.299"/>
<text text-anchor="middle" x="869" y="-663.4" style="font-family:Times New Roman;font-size:14.00;">best_velvet_kmer_results</text>
</g>
<!-- p6&#45;&gt;p10 -->
<g id="edge24" class="edge"><title>p6&#45;&gt;p10</title>
<path style="fill:none;stroke:black;" d="M989,-603C965,-591 933,-575 902,-566 854,-551 795,-547 769,-546"/>
<polygon style="fill:black;stroke:black;" points="769.299,-542.512 759,-545 768.602,-549.478 769.299,-542.512"/>
<text text-anchor="middle" x="1024" y="-571.4" style="font-family:Times New Roman;font-size:14.00;">abyss_assembly_results</text>
</g>
<!-- p6&#45;&gt;p17 -->
<g id="edge26" class="edge"><title>p6&#45;&gt;p17</title>
<path style="fill:none;stroke:black;" d="M1094,-608C1108,-606 1124,-604 1138,-602 1169,-597 1253,-603 1278,-584 1292,-572 1292,-563 1292,-545 1292,-545 1292,-545 1292,-365 1292,-321 1137,-286 1091,-276"/>
<polygon style="fill:black;stroke:black;" points="1091.49,-272.529 1081,-274 1090.12,-279.393 1091.49,-272.529"/>
<text text-anchor="middle" x="1387" y="-467.4" style="font-family:Times New Roman;font-size:14.00;">abyss_assembly_quast_contigs</text>
</g>
<!-- p7&#45;&gt;p10 -->
<g id="edge28" class="edge"><title>p7&#45;&gt;p10</title>
<path style="fill:none;stroke:black;" d="M767,-603C762,-597 757,-591 754,-584 751,-576 751,-565 753,-558"/>
<polygon style="fill:black;stroke:black;" points="756.471,-558.492 755,-548 749.607,-557.119 756.471,-558.492"/>
<text text-anchor="middle" x="828" y="-571.4" style="font-family:Times New Roman;font-size:14.00;">velvet_assembly_results</text>
</g>
<!-- p7&#45;&gt;p17 -->
<g id="edge30" class="edge"><title>p7&#45;&gt;p17</title>
<path style="fill:none;stroke:black;" d="M866,-609C881,-606 896,-604 911,-602 946,-597 1048,-610 1073,-584 1078,-577 1078,-345 1078,-286"/>
<polygon style="fill:black;stroke:black;" points="1081.5,-286 1078,-276 1074.5,-286 1081.5,-286"/>
<text text-anchor="middle" x="1171" y="-467.4" style="font-family:Times New Roman;font-size:14.00;">velvet_assembly_quast_contigs</text>
</g>
<!-- p11 -->
<g id="node32" class="node"><title>p11</title>
<ellipse style="fill:none;stroke:black;" cx="756" cy="-501" rx="3" ry="3"/>
</g>
<!-- p10&#45;&gt;p11 -->
<g id="edge40" class="edge"><title>p10&#45;&gt;p11</title>
<path style="fill:none;stroke:black;" d="M756,-542C756,-536 756,-524 756,-514"/>
<polygon style="fill:black;stroke:black;" points="759.5,-514 756,-504 752.5,-514 759.5,-514"/>
</g>
<!-- p18 -->
<g id="node45" class="node"><title>p18</title>
<ellipse style="fill:none;stroke:black;" cx="1078" cy="-197" rx="3" ry="3"/>
</g>
<!-- p17&#45;&gt;p18 -->
<g id="edge54" class="edge"><title>p17&#45;&gt;p18</title>
<path style="fill:none;stroke:black;" d="M1078,-270C1078,-259 1078,-228 1078,-210"/>
<polygon style="fill:black;stroke:black;" points="1081.5,-210 1078,-200 1074.5,-210 1081.5,-210"/>
</g>
<!-- p12 -->
<g id="node34" class="node"><title>p12</title>
<ellipse style="fill:none;stroke:black;" cx="673" cy="-441" rx="3" ry="3"/>
</g>
<!-- p11&#45;&gt;p12 -->
<g id="edge42" class="edge"><title>p11&#45;&gt;p12</title>
<path style="fill:none;stroke:black;" d="M756,-498C755,-490 752,-471 742,-462 734,-454 704,-447 686,-444"/>
<polygon style="fill:black;stroke:black;" points="686.492,-440.529 676,-442 685.119,-447.393 686.492,-440.529"/>
</g>
<!-- p13 -->
<g id="node36" class="node"><title>p13</title>
<ellipse style="fill:none;stroke:black;" cx="305" cy="-365" rx="80.8184" ry="18.3848"/>
<text text-anchor="middle" x="305" y="-361.4" style="font-family:Times New Roman;font-size:14.00;">IntegrateContigs</text>
</g>
<!-- p12&#45;&gt;p13 -->
<g id="edge44" class="edge"><title>p12&#45;&gt;p13</title>
<path style="fill:none;stroke:black;" d="M670,-440C645,-435 474,-399 375,-379"/>
<polygon style="fill:black;stroke:black;" points="375.492,-375.529 365,-377 374.119,-382.393 375.492,-375.529"/>
<text text-anchor="middle" x="655" y="-407.4" style="font-family:Times New Roman;font-size:14.00;">grouped_assembly_contigs</text>
</g>
<!-- p13&#45;&gt;p17 -->
<g id="edge50" class="edge"><title>p13&#45;&gt;p17</title>
<path style="fill:none;stroke:black;" d="M321,-347C335,-332 353,-314 363,-310 430,-280 973,-274 1065,-273"/>
<polygon style="fill:black;stroke:black;" points="1065,-276.5 1075,-273 1065,-269.5 1065,-276.5"/>
<text text-anchor="middle" x="454" y="-315.4" style="font-family:Times New Roman;font-size:14.00;">cisa_integrated_quast_contigs</text>
</g>
<!-- p14 -->
<g id="node38" class="node"><title>p14</title>
<ellipse style="fill:black;stroke:black;" cx="247" cy="-273" rx="1.8" ry="1.8"/>
</g>
<!-- p13&#45;&gt;p14 -->
<g id="edge46" class="edge"><title>p13&#45;&gt;p14</title>
<path style="fill:none;stroke:black;" d="M268,-348C260,-343 252,-336 248,-328 241,-314 242,-297 244,-285"/>
<polygon style="fill:black;stroke:black;" points="247.471,-285.492 246,-275 240.607,-284.119 247.471,-285.492"/>
<text text-anchor="middle" x="294" y="-315.4" style="font-family:Times New Roman;font-size:14.00;">master_contigs</text>
</g>
<!-- p15 -->
<g id="node40" class="node"><title>p15</title>
<ellipse style="fill:none;stroke:black;" cx="82" cy="-273" rx="82.0244" ry="18.3848"/>
<text text-anchor="middle" x="82" y="-269.4" style="font-family:Times New Roman;font-size:14.00;">AnnotateContigs</text>
</g>
<!-- p13&#45;&gt;p15 -->
<g id="edge48" class="edge"><title>p13&#45;&gt;p15</title>
<path style="fill:none;stroke:black;" d="M227,-360C176,-355 115,-346 96,-328 89,-321 85,-311 83,-302"/>
<polygon style="fill:black;stroke:black;" points="86.4778,-301.602 82,-292 79.5125,-302.299 86.4778,-301.602"/>
<text text-anchor="middle" x="167" y="-315.4" style="font-family:Times New Roman;font-size:14.00;">cisa_integrated_contigs</text>
</g>
<!-- p16 -->
<g id="node43" class="node"><title>p16</title>
<ellipse style="fill:black;stroke:black;" cx="82" cy="-197" rx="1.8" ry="1.8"/>
</g>
<!-- p15&#45;&gt;p16 -->
<g id="edge52" class="edge"><title>p15&#45;&gt;p16</title>
<path style="fill:none;stroke:black;" d="M82,-254C82,-240 82,-221 82,-209"/>
<polygon style="fill:black;stroke:black;" points="85.5001,-209 82,-199 78.5001,-209 85.5001,-209"/>
<text text-anchor="middle" x="141" y="-223.4" style="font-family:Times New Roman;font-size:14.00;">prokka_annotations</text>
</g>
<!-- p19 -->
<g id="node47" class="node"><title>p19</title>
<ellipse style="fill:none;stroke:black;" cx="1078" cy="-153" rx="3" ry="3"/>
</g>
<!-- p18&#45;&gt;p19 -->
<g id="edge56" class="edge"><title>p18&#45;&gt;p19</title>
<path style="fill:none;stroke:black;" d="M1078,-194C1078,-188 1078,-176 1078,-166"/>
<polygon style="fill:black;stroke:black;" points="1081.5,-166 1078,-156 1074.5,-166 1081.5,-166"/>
</g>
<!-- p20 -->
<g id="node49" class="node"><title>p20</title>
<ellipse style="fill:none;stroke:black;" cx="1078" cy="-77" rx="97.0803" ry="18.3848"/>
<text text-anchor="middle" x="1078" y="-73.4" style="font-family:Times New Roman;font-size:14.00;">EvaluateAssemblies</text>
</g>
<!-- p19&#45;&gt;p20 -->
<g id="edge58" class="edge"><title>p19&#45;&gt;p20</title>
<path style="fill:none;stroke:black;" d="M1078,-150C1078,-143 1078,-123 1078,-106"/>
<polygon style="fill:black;stroke:black;" points="1081.5,-106 1078,-96 1074.5,-106 1081.5,-106"/>
<text text-anchor="middle" x="1181" y="-119.4" style="font-family:Times New Roman;font-size:14.00;">grouped_assembly_quast_contigs</text>
</g>
<!-- p21 -->
<g id="node51" class="node"><title>p21</title>
<ellipse style="fill:black;stroke:black;" cx="1078" cy="-2" rx="1.8" ry="1.8"/>
</g>
<!-- p20&#45;&gt;p21 -->
<g id="edge60" class="edge"><title>p20&#45;&gt;p21</title>
<path style="fill:none;stroke:black;" d="M1078,-58C1078,-44 1078,-26 1078,-14"/>
<polygon style="fill:black;stroke:black;" points="1081.5,-14 1078,-4 1074.5,-14 1081.5,-14"/>
<text text-anchor="middle" x="1129" y="-27.4" style="font-family:Times New Roman;font-size:14.00;">quast_evaluation</text>
</g>
</g>
</svg>
